<svg version="1.0" xmlns="http://www.w3.org/2000/svg"
 width="1222.000000pt" height="1228.000000pt" viewBox="0 0 1222.000000 1228.000000"
 preserveAspectRatio="xMidYMid meet">

<g  transform="translate(0.000000,1228.000000) scale(0.100000,-0.100000)"
 stroke="none">
<path  d="M0 6140 l0 -6140 6110 0 6110 0 0 6140 0 6140 -6110 0 -6110 0 0
-6140z m6410 4031 c52 -6 118 -12 145 -15 28 -3 75 -8 105 -11 170 -18 593
-117 795 -186 107 -37 250 -91 260 -99 6 -4 21 -11 35 -15 84 -25 416 -194
555 -283 39 -25 95 -61 125 -80 339 -217 743 -596 1004 -942 229 -304 390
-595 512 -925 25 -66 49 -130 54 -141 4 -12 34 -106 66 -210 49 -160 58 -201
58 -269 1 -71 -2 -84 -25 -118 -80 -115 -227 -135 -325 -45 -40 37 -48 52 -80
157 -70 228 -136 424 -160 477 -13 29 -24 55 -24 58 0 14 -114 252 -158 329
-271 475 -643 887 -1090 1206 -188 134 -468 291 -654 368 -32 12 -86 35 -120
49 -200 83 -492 165 -728 204 -63 11 -141 24 -172 30 -211 39 -780 42 -998 5
-14 -2 -72 -11 -130 -20 -233 -36 -548 -122 -780 -211 -323 -125 -696 -338
-930 -530 -8 -7 -33 -27 -54 -44 -93 -73 -286 -254 -382 -359 -377 -410 -634
-865 -789 -1396 -76 -259 -86 -284 -133 -326 -24 -21 -60 -41 -79 -45 -60 -11
-139 1 -178 27 -43 28 -95 123 -95 172 0 33 39 199 64 272 8 22 29 87 46 145
127 413 324 795 593 1150 319 420 727 784 1192 1065 90 54 363 193 440 223 28
11 86 34 130 52 206 82 551 182 745 216 47 9 108 20 135 25 28 5 140 18 250
29 110 11 216 22 235 24 57 7 437 -2 540 -13z m-277 -1661 c89 -17 20 17 1792
-874 865 -435 970 -491 1011 -532 31 -30 69 -94 79 -129 4 -16 6 -687 5 -1489
-1 -1290 -3 -1463 -17 -1498 -21 -52 -96 -117 -201 -174 -48 -26 -116 -63
-152 -82 -159 -85 -576 -315 -585 -323 -10 -8 -47 -28 -200 -109 -71 -38 -248
-136 -360 -200 -22 -13 -58 -33 -80 -45 -22 -12 -96 -53 -165 -92 -69 -38
-150 -83 -180 -100 -30 -16 -143 -79 -250 -138 -536 -297 -625 -344 -672 -355
-28 -7 -81 -10 -118 -8 -59 5 -83 13 -182 65 -115 61 -196 105 -279 152 -259
146 -336 189 -368 207 -20 12 -124 71 -231 131 -107 60 -213 120 -235 133 -64
37 -344 193 -710 395 -379 209 -705 393 -777 438 -27 16 -63 48 -80 70 l-33
41 -5 1441 c-3 792 -2 1466 3 1499 17 127 68 181 262 278 133 66 803 406 1115
566 124 63 331 169 460 235 129 66 341 174 470 240 465 239 475 243 542 256
61 12 77 12 141 1z"/>
<path  d="M5793 7939 c-142 -72 -352 -180 -468 -239 -613 -313 -832 -424 -1157
-587 -197 -98 -358 -181 -358 -185 0 -7 120 -72 395 -213 105 -54 222 -114
260 -135 39 -21 112 -59 164 -85 l93 -47 972 486 c882 442 1296 653 1310 667
7 7 -915 469 -936 469 -9 0 -133 -59 -275 -131z"/>
<path  d="M7315 7262 c-104 -52 -623 -311 -1153 -575 -530 -264 -962 -481 -960
-482 2 -1 86 -45 188 -97 197 -101 481 -248 619 -321 l84 -44 221 112 c122 62
246 126 277 143 54 29 279 149 504 267 194 103 248 131 345 182 52 28 154 81
225 118 72 37 144 75 160 85 27 16 458 238 512 264 13 6 23 14 23 17 0 3 -19
14 -42 25 -24 11 -214 107 -424 212 -210 106 -383 191 -385 190 -2 0 -89 -44
-194 -96z"/>
<path d="M3570 5376 l0 -1184 103 -57 c56 -30 127 -70 157 -87 53 -29 76 -42
225 -123 39 -20 75 -41 80 -45 6 -4 37 -22 70 -40 33 -18 83 -45 110 -60 28
-15 241 -134 475 -265 234 -130 439 -244 455 -253 17 -8 86 -47 155 -87 162
-94 456 -255 464 -255 3 0 6 550 6 1223 l0 1222 -57 30 c-32 17 -137 73 -233
126 -96 53 -213 116 -260 141 -47 25 -153 82 -236 127 -83 45 -154 81 -158 81
-3 0 -6 -135 -6 -300 0 -323 -2 -335 -53 -396 -92 -109 -261 -92 -339 34 -23
37 -23 39 -28 455 l-5 419 -200 102 c-235 120 -444 229 -607 315 l-118 62 0
-1185z"/>
<path d="M8510 6524 c-36 -19 -135 -72 -220 -116 -85 -45 -231 -122 -325 -171
-93 -49 -217 -114 -275 -145 -58 -30 -109 -58 -115 -62 -5 -4 -95 -51 -200
-105 -104 -54 -224 -116 -265 -138 -41 -22 -104 -56 -140 -75 -36 -19 -96 -51
-135 -72 -38 -21 -135 -71 -215 -113 -80 -41 -182 -94 -227 -118 l-83 -43 0
-1213 c0 -667 3 -1213 6 -1213 6 0 154 78 169 90 11 8 1027 570 1355 749 113
62 214 117 225 123 24 14 73 41 185 101 47 25 141 76 210 114 l125 70 3 1186
c1 653 -1 1187 -5 1186 -5 0 -37 -16 -73 -35z"/>
</g>
</svg>
